<svg xmlns="http://www.w3.org/2000/svg" width="2001" height="1676" viewBox="0 0 2001 1676" version="1.1"><path d="M 470.840 1194.250 C 470.752 1194.388, 470.608 1292.487, 470.519 1412.250 L 470.357 1630 493.520 1630 L 516.684 1630 517.339 1611.250 C 517.699 1600.938, 517.996 1503.130, 517.997 1393.900 L 518 1195.299 508.846 1194.650 C 500.112 1194.030, 471.175 1193.725, 470.840 1194.250 M 221.354 1208.016 C 86.872 1221.130, 7.341 1354.001, 48.460 1496.863 C 83.904 1620.005, 245.671 1675.511, 367.191 1606.227 C 381.657 1597.979, 379.970 1612.413, 379.986 1496.750 L 380 1398 344.163 1398 C 324.453 1398, 292.728 1397.702, 273.663 1397.338 L 239 1396.676 239 1418.328 L 239 1439.980 285.250 1440.240 L 331.500 1440.500 331.773 1496 C 331.922 1526.525, 331.697 1555.933, 331.273 1561.351 L 330.500 1571.203 321.500 1574.621 C 221.518 1612.599, 119.047 1567.779, 96.519 1476.217 C 68.064 1360.559, 127.672 1264.376, 233.081 1255.862 L 247.682 1254.683 264.029 1255.879 C 299.343 1258.464, 331.288 1267.858, 357.250 1283.294 L 365 1287.902 365 1261.382 L 365 1234.861 353.250 1229.313 C 316.923 1212.160, 264.938 1203.765, 221.354 1208.016 M 1190 1422 L 1190 1630 1302.425 1630 L 1414.850 1630 1415.189 1609.750 C 1415.375 1598.612, 1415.386 1589.003, 1415.213 1588.396 C 1414.646 1586.409, 1397.957 1586, 1317.346 1586 L 1238 1586 1238 1400.651 L 1238 1215.302 1228.250 1214.656 C 1222.888 1214.301, 1212.088 1214.008, 1204.250 1214.005 L 1190 1214 1190 1422 M 1488 1422 L 1488 1630 1512.500 1630 L 1537 1630 1537 1422 L 1537 1214 1512.500 1214 L 1488 1214 1488 1422 M 1637 1422 L 1637 1630 1700.750 1629.996 C 1782.140 1629.992, 1798.741 1628.978, 1825.245 1622.390 C 2000.282 1578.883, 2022.615 1311.227, 1857.571 1234.977 C 1818.823 1217.075, 1795.686 1214.040, 1697.750 1214.015 L 1637 1214 1637 1422 M 977.733 1240.600 C 977.403 1240.930, 977.089 1258.119, 977.035 1278.798 C 976.920 1323.326, 980.973 1317.081, 951.831 1317.635 L 927.500 1318.097 927.228 1337.049 L 926.957 1356 951.978 1356 L 977 1356 977.002 1400.250 C 977.003 1424.588, 977.149 1469.925, 977.328 1501 L 977.652 1557.500 979.718 1566.500 C 991.647 1618.469, 1033.590 1642.340, 1091.938 1630.368 C 1114.259 1625.788, 1113.966 1626.193, 1113.985 1599.881 L 1114 1578.262 1105.674 1582.441 C 1070.302 1600.193, 1036.260 1589.791, 1027.322 1558.500 L 1025.608 1552.500 1025.262 1461.500 C 1025.072 1411.450, 1025.272 1367.350, 1025.708 1363.500 L 1026.500 1356.500 1069.250 1356.239 L 1112 1355.979 1112 1336.989 L 1112 1318 1069.559 1318 L 1027.118 1318 1026.396 1316.831 C 1025.999 1316.189, 1025.460 1298.639, 1025.199 1277.831 L 1024.725 1240 1001.529 1240 C 988.771 1240, 978.063 1240.270, 977.733 1240.600 M 1686.667 1258.667 C 1686.300 1259.033, 1686 1333.058, 1686 1423.167 L 1686 1587 1728.750 1586.991 C 1832.753 1586.971, 1873.378 1566.732, 1902.390 1500.485 C 1950.840 1389.855, 1890.785 1272.537, 1779.010 1259.462 L 1766.512 1258 1726.923 1258 C 1705.149 1258, 1687.033 1258.300, 1686.667 1258.667 M 725.500 1314.046 C 632.730 1321.012, 574.866 1415.157, 598.026 1521.443 C 612.303 1586.960, 659.271 1628.968, 725.173 1635.163 L 737.846 1636.354 751.173 1635.160 C 880.854 1623.539, 934.818 1453.102, 840.866 1351.873 C 815.962 1325.041, 771.821 1310.567, 725.500 1314.046 M 721.342 1357.415 C 620.980 1376.534, 614.948 1562.141, 713.789 1589.784 L 723.500 1592.500 740 1592.409 L 756.500 1592.318 764.500 1590.143 C 809.563 1577.891, 835.972 1535.119, 835.994 1474.349 L 836 1458.199 833.987 1446.349 C 825.635 1397.200, 803.512 1368.786, 766 1359.029 L 757.500 1356.818 743 1356.435 C 733.385 1356.180, 726.089 1356.510, 721.342 1357.415" stroke="none" fill="#6e5e59" fill-rule="evenodd"/><path d="M 1067 23.085 C 1068.750 23.704, 1067.753 23.819, 1063.681 23.468 L 1057.861 22.966 1058.556 24.090 C 1059.034 24.865, 1058.550 24.992, 1057 24.500 L 1054.750 23.786 1055.529 25.047 C 1056.048 25.887, 1055.905 26.059, 1055.101 25.563 C 1054.391 25.124, 1053.092 25.740, 1051.947 27.061 L 1050 29.306 1050 211.212 L 1050 393.118 1051.138 392.414 L 1052.277 391.711 1051.575 395.454 L 1050.872 399.197 1052.106 398.434 L 1053.340 397.672 1052.681 399.388 C 1052.290 400.407, 1052.424 400.856, 1053.011 400.493 C 1053.555 400.157, 1054 400.344, 1054 400.910 C 1054 401.475, 1054.749 401.650, 1055.664 401.299 C 1056.675 400.911, 1057.079 401.063, 1056.694 401.686 C 1056.299 402.325, 1057.085 402.548, 1058.780 402.277 C 1060.425 402.015, 1061.033 402.177, 1060.320 402.688 C 1059.645 403.171, 1062.426 403.459, 1066.820 403.362 L 1074.500 403.193 1069.500 403.939 C 1066.750 404.350, 1119.285 404.756, 1186.244 404.843 L 1307.987 405 1307.715 406.750 C 1307.565 407.712, 1307.091 409.063, 1306.662 409.750 C 1306.233 410.438, 1306.246 411.007, 1306.691 411.015 C 1307.136 411.024, 1306.949 411.381, 1306.275 411.809 C 1305.601 412.237, 1304.926 413.693, 1304.775 415.044 C 1304.624 416.395, 1304.207 417.725, 1303.850 418 C 1303.492 418.275, 1303.042 419.400, 1302.850 420.500 C 1302.657 421.600, 1302.257 422.725, 1301.959 423 C 1301.427 423.491, 1291.537 449.355, 1283.985 470 C 1281.873 475.775, 1278.987 483.648, 1277.572 487.496 C 1274.913 494.729, 1274.210 501, 1276.059 501 C 1276.641 501, 1276.882 501.382, 1276.593 501.849 C 1275.007 504.416, 1283.596 512.476, 1286.664 511.299 C 1287.798 510.863, 1288.093 511.040, 1287.590 511.854 C 1285.741 514.846, 1304.033 505.967, 1308.102 501.898 C 1309.146 500.854, 1310.236 500.019, 1310.525 500.042 C 1311.600 500.128, 1330.943 488.276, 1330.481 487.814 C 1330.216 487.550, 1330.562 487.327, 1331.250 487.320 C 1332.512 487.306, 1350.509 476.450, 1379 458.516 C 1387.525 453.150, 1402.375 443.936, 1412 438.040 C 1436.930 422.768, 1439.033 421.366, 1438.224 420.557 C 1437.826 420.159, 1437.950 419.960, 1438.500 420.115 C 1440.058 420.553, 1444.084 418.946, 1443.559 418.095 C 1443.300 417.676, 1443.631 417.322, 1444.294 417.308 C 1446.107 417.269, 1458 409.908, 1458 408.824 C 1458 408.306, 1458.450 408.160, 1459 408.500 C 1459.550 408.840, 1460 408.716, 1460 408.226 C 1460 407.735, 1460.563 407.266, 1461.250 407.183 C 1465.313 406.696, 1468.925 405.688, 1468.584 405.138 C 1468.367 404.787, 1481.084 404.542, 1496.845 404.593 C 1512.605 404.644, 1522.575 404.382, 1519 404.010 C 1514.572 403.550, 1518.078 403.328, 1530 403.313 C 1550.055 403.289, 1570.272 401.685, 1570.808 400.077 C 1571.007 399.478, 1571.577 399.239, 1572.074 399.546 C 1572.571 399.853, 1572.681 399.332, 1572.319 398.388 C 1571.899 397.294, 1572.050 396.913, 1572.735 397.336 C 1573.460 397.784, 1573.673 396.616, 1573.389 393.750 L 1572.969 389.500 1573.914 391.500 C 1574.512 392.765, 1574.859 326.944, 1574.859 212.500 C 1574.859 97.602, 1574.513 32.230, 1573.911 33.500 L 1572.962 35.500 1573.427 32.394 L 1573.892 29.288 1570.675 26.170 L 1567.458 23.051 1563.479 23.544 L 1559.500 24.037 1561.500 23.089 C 1562.766 22.489, 1471.931 22.151, 1314 22.170 C 1167.990 22.187, 1065.537 22.567, 1067 23.085 M 1303 54.553 C 1301.625 54.787, 1296.675 55.480, 1292 56.092 C 1272.485 58.647, 1244.596 68.728, 1230.449 78.341 C 1228.368 79.755, 1226.222 80.637, 1225.678 80.301 C 1225.126 79.960, 1225.006 80.200, 1225.405 80.845 C 1226.078 81.935, 1224.733 82.486, 1222.500 82.035 C 1221.950 81.924, 1221.816 82.149, 1222.201 82.535 C 1222.913 83.246, 1209.018 94.670, 1207.895 94.297 C 1207.559 94.186, 1205.982 95.536, 1204.392 97.297 L 1201.500 100.500 1205 97.502 L 1208.500 94.504 1205.102 98.203 C 1203.233 100.237, 1201.228 101.811, 1200.647 101.701 C 1200.066 101.590, 1199.570 101.950, 1199.543 102.500 C 1199.469 104.064, 1188.753 116.533, 1187.748 116.225 C 1187.255 116.074, 1187.063 116.299, 1187.322 116.725 C 1187.921 117.710, 1180.487 128.096, 1179.634 127.468 C 1179.285 127.210, 1179.207 127.282, 1179.460 127.627 C 1180.143 128.557, 1177.115 134, 1175.915 134 C 1175.347 134, 1175.138 134.414, 1175.450 134.919 C 1175.763 135.425, 1175.307 136.550, 1174.438 137.419 C 1173.568 138.289, 1173.089 139, 1173.371 139 C 1173.654 139, 1171.943 143.387, 1169.568 148.750 C 1160.731 168.709, 1155.048 191.025, 1154.991 206 C 1154.979 209.047, 1154.620 210.950, 1154.185 210.266 C 1153.754 209.587, 1153.561 211.162, 1153.755 213.766 C 1155.118 231.983, 1157.737 247.821, 1161.062 257.952 C 1162.193 261.396, 1162.888 264.445, 1162.607 264.727 C 1162.325 265.008, 1162.749 265.892, 1163.548 266.690 C 1164.346 267.489, 1164.993 268.673, 1164.985 269.321 C 1164.975 270.034, 1164.542 269.906, 1163.890 269 L 1162.811 267.500 1163.406 269.332 C 1163.733 270.339, 1164 271.378, 1164 271.641 C 1164 271.903, 1164.406 271.867, 1164.903 271.560 C 1166.034 270.861, 1168.206 276.857, 1167.334 278.269 C 1166.980 278.841, 1167.163 279.017, 1167.741 278.660 C 1169.001 277.881, 1170.281 280.736, 1169.349 282.245 C 1168.985 282.834, 1169.159 283.019, 1169.741 282.660 C 1171.001 281.881, 1172.281 284.736, 1171.349 286.245 C 1170.985 286.834, 1171.159 287.019, 1171.741 286.660 C 1173.001 285.881, 1174.281 288.736, 1173.349 290.245 C 1172.985 290.834, 1173.159 291.019, 1173.741 290.660 C 1174.318 290.303, 1175.057 290.707, 1175.384 291.558 C 1175.753 292.520, 1175.566 292.850, 1174.889 292.431 L 1173.800 291.759 1174.827 293.629 C 1176.059 295.875, 1179.463 300.106, 1178.420 298.095 C 1177.924 297.140, 1178.082 296.933, 1178.914 297.447 C 1179.586 297.862, 1179.900 298.817, 1179.612 299.569 C 1179.323 300.321, 1179.587 301.245, 1180.198 301.622 C 1180.871 302.038, 1181.028 301.854, 1180.595 301.155 C 1180.203 300.520, 1180.082 300, 1180.326 300 C 1181.027 300, 1184.194 305.115, 1184.412 306.600 C 1184.520 307.338, 1184.994 308.293, 1185.465 308.721 C 1185.936 309.150, 1185.954 308.868, 1185.506 308.095 C 1184.940 307.121, 1185.065 306.922, 1185.914 307.447 C 1186.586 307.862, 1186.907 308.799, 1186.628 309.528 C 1186.348 310.257, 1186.880 311.449, 1187.809 312.177 L 1189.500 313.500 1188.500 311.953 C 1187.950 311.102, 1188.285 311.261, 1189.245 312.307 C 1190.204 313.353, 1190.777 314.551, 1190.518 314.971 C 1190.259 315.390, 1191.049 316.580, 1192.274 317.616 L 1194.500 319.500 1193 317.434 C 1192.175 316.297, 1193.161 317.170, 1195.191 319.374 C 1197.222 321.578, 1198.614 323.815, 1198.287 324.345 C 1197.959 324.875, 1198.137 325.033, 1198.683 324.696 C 1199.229 324.359, 1201.436 325.974, 1203.587 328.285 L 1207.500 332.487 1204 329.494 L 1200.500 326.500 1203.403 329.714 C 1205 331.482, 1206.626 332.731, 1207.016 332.490 C 1207.407 332.249, 1209.280 333.502, 1211.179 335.276 C 1213.078 337.049, 1213.702 337.825, 1212.566 337 L 1210.500 335.500 1212.384 337.726 C 1213.420 338.951, 1214.665 339.707, 1215.151 339.406 C 1215.638 339.106, 1217.940 340.322, 1220.268 342.108 C 1225.221 345.909, 1227.159 347.670, 1225.095 346.492 C 1224.147 345.951, 1223.926 346.071, 1224.415 346.862 C 1224.813 347.506, 1225.513 347.801, 1225.970 347.518 C 1227.161 346.783, 1235.157 351.510, 1234.252 352.415 C 1233.838 352.828, 1233.950 353.040, 1234.500 352.885 C 1236.207 352.405, 1240.060 354.094, 1239.463 355.061 C 1239.151 355.565, 1239.560 355.722, 1240.371 355.411 C 1241.182 355.100, 1242.743 355.743, 1243.839 356.839 C 1244.936 357.936, 1246.096 358.571, 1246.417 358.250 C 1246.738 357.929, 1247 358.218, 1247 358.892 C 1247 359.566, 1247.409 359.865, 1247.910 359.556 C 1249.273 358.714, 1252.082 360.059, 1251.369 361.212 C 1250.980 361.841, 1251.587 361.948, 1253 361.500 C 1254.521 361.017, 1255.031 361.141, 1254.573 361.881 C 1254.149 362.568, 1254.475 362.755, 1255.448 362.382 C 1256.304 362.053, 1257 362.309, 1257 362.952 C 1257 363.593, 1257.450 363.840, 1258 363.500 C 1258.550 363.160, 1259 363.309, 1259 363.830 C 1259 364.351, 1259.563 364.757, 1260.250 364.731 C 1263.675 364.604, 1265.068 365.081, 1264.405 366.155 C 1263.973 366.853, 1264.129 367.038, 1264.800 366.624 C 1266.288 365.704, 1271.132 366.977, 1270.435 368.105 C 1270.132 368.596, 1270.697 368.926, 1271.692 368.840 C 1276.156 368.453, 1279.096 369.036, 1278.395 370.170 C 1277.908 370.958, 1278.218 371.130, 1279.347 370.697 C 1281.579 369.841, 1287.120 370.997, 1286.396 372.168 C 1286.058 372.715, 1288.003 372.864, 1291.163 372.532 L 1296.500 371.972 1294.500 372.928 C 1293.162 373.568, 1297.629 373.780, 1308 373.570 L 1323.500 373.255 1314.500 374.001 L 1305.500 374.748 1321 374.373 C 1337.541 373.972, 1346.375 373.001, 1357.346 370.375 L 1364.193 368.737 1362.846 367.803 C 1361.919 367.160, 1362.207 367.068, 1363.770 367.508 C 1366.441 368.260, 1376.272 365.249, 1375.456 363.929 C 1375.148 363.430, 1375.545 363.272, 1376.338 363.576 C 1377.811 364.141, 1395.884 355.506, 1399.500 352.509 C 1400.600 351.598, 1400.938 351.137, 1400.250 351.485 C 1398.079 352.585, 1398.899 351.124, 1401.121 349.935 L 1403.241 348.800 1402.562 349.900 C 1401.189 352.121, 1403.283 350.910, 1406.279 347.750 C 1407.974 345.962, 1409 345.107, 1408.559 345.850 L 1407.759 347.200 1410.091 345.951 C 1411.374 345.265, 1416.716 340.364, 1421.962 335.062 C 1427.208 329.759, 1429.025 328.139, 1426 331.460 L 1420.500 337.500 1426.703 331.578 C 1430.114 328.321, 1432.716 325.349, 1432.484 324.973 C 1431.819 323.898, 1436.551 319.894, 1437.485 320.741 C 1437.944 321.158, 1438.054 321.030, 1437.729 320.456 C 1437.127 319.394, 1447.429 305.763, 1448.229 306.563 C 1448.470 306.803, 1448.667 306.403, 1448.667 305.672 C 1448.667 304.942, 1450.052 302.331, 1451.745 299.870 C 1460.451 287.217, 1470.826 261.051, 1474.493 242.500 C 1476.814 230.763, 1478.871 210.656, 1477.865 209.550 C 1477.389 209.027, 1476.992 206.102, 1476.982 203.050 C 1476.971 199.997, 1476.298 193.741, 1475.486 189.147 C 1474.674 184.553, 1474.235 180.429, 1474.511 179.983 C 1474.787 179.536, 1474.521 179.007, 1473.919 178.806 C 1473.318 178.606, 1472.794 176.335, 1472.755 173.760 C 1472.715 171.076, 1472.279 169.327, 1471.735 169.664 C 1471.169 170.014, 1471.074 169.342, 1471.500 168 C 1471.999 166.427, 1471.869 165.963, 1471.067 166.459 L 1469.920 167.168 1470.606 164.435 L 1471.292 161.702 1469.991 162.505 C 1469.130 163.038, 1468.934 162.916, 1469.410 162.146 C 1470.421 160.510, 1469.084 156.830, 1467.773 157.640 C 1467.109 158.050, 1466.981 157.840, 1467.442 157.094 C 1468.327 155.662, 1466.131 149.801, 1464.977 150.514 C 1464.542 150.783, 1464.421 150.108, 1464.707 149.014 C 1465.036 147.753, 1464.638 146.798, 1463.619 146.407 C 1462.735 146.068, 1462.260 145.388, 1462.565 144.895 C 1462.869 144.403, 1462.615 144, 1462 144 C 1461.385 144, 1461.160 143.550, 1461.500 143 C 1461.840 142.450, 1461.615 142, 1461 142 C 1460.385 142, 1460.160 141.551, 1460.499 141.002 C 1461.274 139.747, 1458.576 135.757, 1457.607 136.726 C 1457.215 137.118, 1457.190 136.669, 1457.551 135.728 C 1457.971 134.634, 1457.631 133.796, 1456.609 133.404 C 1455.731 133.066, 1455.259 132.390, 1455.562 131.900 C 1455.865 131.410, 1455.075 129.993, 1453.806 128.752 C 1450.208 125.231, 1447.268 121.387, 1449.039 122.517 C 1449.885 123.058, 1449.210 122.225, 1447.539 120.666 C 1445.868 119.107, 1445.175 118.162, 1446 118.567 C 1446.825 118.971, 1445.700 117.609, 1443.500 115.539 C 1441.300 113.470, 1440.400 112.380, 1441.500 113.118 C 1442.600 113.855, 1440.237 111.388, 1436.249 107.635 C 1432.261 103.882, 1429.293 100.334, 1429.654 99.751 C 1430.021 99.158, 1429.838 98.982, 1429.238 99.353 C 1428.650 99.717, 1426.259 97.874, 1423.926 95.257 C 1421.592 92.641, 1420.317 91.385, 1421.092 92.466 C 1421.866 93.547, 1420.341 92.647, 1417.702 90.466 C 1415.064 88.285, 1412.231 85.473, 1411.408 84.218 C 1410.585 82.963, 1409.586 82.138, 1409.188 82.384 C 1408.079 83.069, 1400.901 78.433, 1401.752 77.581 C 1402.164 77.170, 1402.050 76.924, 1401.500 77.035 C 1399.198 77.500, 1397.920 76.933, 1398.601 75.750 C 1398.997 75.063, 1398.968 74.818, 1398.537 75.207 C 1397.543 76.103, 1390 72.315, 1390 70.921 C 1390 70.349, 1389.550 70.160, 1389 70.500 C 1388.450 70.840, 1388 70.615, 1388 70 C 1388 69.385, 1387.591 69.135, 1387.090 69.444 C 1385.875 70.195, 1382.882 69, 1383.495 68.008 C 1383.761 67.578, 1383.421 67.288, 1382.739 67.363 C 1381.016 67.554, 1366.576 61.862, 1366.165 60.830 C 1365.980 60.366, 1365.450 60.222, 1364.986 60.509 C 1363.816 61.232, 1355 58.781, 1355 57.734 C 1355 57.265, 1354.628 57.112, 1354.173 57.393 C 1353.718 57.674, 1349.106 57.248, 1343.923 56.445 C 1334.504 54.986, 1307.720 53.748, 1303 54.553 M 1454.250 71.662 C 1449.911 73.413, 1453.558 84, 1458.500 84 C 1460.205 84, 1462.027 84.342, 1462.550 84.760 C 1463.072 85.178, 1472.667 85.291, 1483.871 85.010 L 1504.242 84.500 1505.530 86.342 L 1506.818 88.185 1507.293 86.342 C 1507.554 85.329, 1507.870 96.200, 1507.994 110.500 C 1508.313 147.345, 1508.023 146, 1515.647 146 L 1520.050 146 1521.025 143.435 C 1521.588 141.952, 1522 126.634, 1522 107.135 L 1522 73.400 1520.800 72.200 L 1519.600 71 1487.550 71.079 C 1469.923 71.122, 1454.938 71.385, 1454.250 71.662 M 1331.933 84.040 L 1330.500 84.925 1330 110.563 C 1329.725 124.664, 1329.725 136.545, 1330 136.965 C 1331.477 139.220, 1371 130.719, 1371 128.146 C 1371 127.014, 1362.139 111.714, 1358.464 106.500 C 1350.842 95.687, 1334.912 82.201, 1331.933 84.040 M 1294.327 85.952 C 1289.133 89.121, 1279.710 98.426, 1274.534 105.500 C 1266.569 116.383, 1259.663 128.064, 1260.629 129.016 C 1262.716 131.071, 1300.391 136.942, 1301.888 135.445 C 1302.133 135.200, 1301.782 135, 1301.108 135 C 1300.434 135, 1300.165 134.543, 1300.510 133.984 C 1300.856 133.425, 1301.609 133.258, 1302.184 133.614 C 1303.223 134.256, 1302.519 93.816, 1301.388 87.852 C 1300.751 84.491, 1297.956 83.739, 1294.327 85.952 M 1095.469 115.229 L 1095.500 139.158 1097.441 140.579 C 1099.584 142.148, 1104.750 142.445, 1106.840 141.120 L 1108.180 140.271 1108.732 122.379 C 1109.036 112.538, 1108.958 101.430, 1108.558 97.693 L 1107.830 90.900 1101.634 91.100 L 1095.439 91.301 1095.469 115.229 M 1208.899 140.328 L 1210.298 142.064 1207.798 141.113 L 1205.299 140.163 1200.498 148.106 C 1193.935 158.961, 1183.661 189.704, 1184.241 196.750 L 1184.426 199 1200.999 199 L 1217.571 199 1217.684 197.250 C 1217.998 192.389, 1222.205 161.046, 1223.050 157.278 C 1223.585 154.891, 1223.756 151.714, 1223.430 150.219 L 1222.838 147.500 1223.995 149 L 1225.152 150.500 1224.722 149 C 1224.486 148.175, 1223.507 147.643, 1222.546 147.817 C 1221.521 148.003, 1221.069 147.698, 1221.452 147.078 C 1221.848 146.437, 1221.495 146.256, 1220.552 146.618 C 1219.696 146.947, 1219 146.691, 1219 146.048 C 1219 145.407, 1218.550 145.160, 1218 145.500 C 1217.450 145.840, 1217 145.615, 1217 145 C 1217 144.385, 1216.550 144.160, 1216 144.500 C 1215.450 144.840, 1215 144.615, 1215 144 C 1215 143.385, 1214.550 143.160, 1214 143.500 C 1213.450 143.840, 1212.986 143.754, 1212.969 143.309 C 1212.951 142.864, 1211.714 141.621, 1210.219 140.547 L 1207.500 138.593 1208.899 140.328 M 1420.821 141.250 C 1420.095 141.938, 1418.600 142.654, 1417.500 142.842 C 1416.400 143.029, 1415.358 143.567, 1415.185 144.035 C 1415.012 144.504, 1414.283 144.662, 1413.564 144.386 C 1412.846 144.111, 1411.578 144.564, 1410.748 145.395 C 1409.918 146.225, 1408.970 146.637, 1408.643 146.309 C 1406.852 144.518, 1407.260 150.226, 1409.876 163.549 C 1411.491 171.772, 1413.098 181.425, 1413.448 185 C 1413.797 188.575, 1414.329 193.188, 1414.629 195.250 L 1415.176 199 1427.029 199 C 1433.852 199, 1439.144 198.576, 1439.500 198 C 1439.840 197.450, 1441.180 197, 1442.477 197 C 1445.873 197, 1448 195.996, 1448 194.393 C 1448 193.627, 1447.612 193, 1447.139 193 C 1446.665 193, 1446.479 191.947, 1446.725 190.659 C 1447.851 184.766, 1432.395 144.216, 1427.983 141.490 L 1426.691 140.691 1427.511 142.018 C 1428.023 142.846, 1427.433 142.716, 1425.943 141.673 C 1423.083 139.670, 1422.540 139.625, 1420.821 141.250 M 1096.007 157.987 C 1095.271 159.363, 1095.029 190.133, 1095.222 257.938 L 1095.500 355.901 1096.804 357.200 L 1098.109 358.500 1128.259 358.307 C 1144.842 358.201, 1159.464 357.849, 1160.752 357.526 L 1163.094 356.938 1162.797 350.761 L 1162.500 344.583 1160 343.891 C 1158.625 343.511, 1146.588 343.155, 1133.250 343.100 L 1109 343 1108.990 341.250 C 1108.984 340.288, 1108.988 299.379, 1109 250.342 C 1109.013 194.140, 1108.656 160.226, 1108.035 158.592 L 1107.050 156 1102.060 156 L 1097.070 156 1096.007 157.987 M 1372.500 158.259 C 1369.750 158.822, 1367.275 159.556, 1367 159.891 C 1366.725 160.226, 1365.825 160.509, 1365 160.519 C 1360.333 160.578, 1351 162.337, 1351 163.157 C 1351 163.686, 1350.512 163.816, 1349.916 163.448 C 1348.134 162.347, 1332.358 164.012, 1332.126 165.326 C 1332.011 165.972, 1331.722 173.813, 1331.483 182.750 L 1331.048 199 1346.774 198.997 C 1377.341 198.990, 1388.020 197.131, 1387.985 191.821 L 1387.969 189.500 1386.926 191 L 1385.883 192.500 1386.553 187.122 L 1387.223 181.744 1386.048 182.471 L 1384.872 183.197 1385.575 179.454 C 1386.008 177.146, 1385.910 175.938, 1385.319 176.303 C 1384.759 176.649, 1384.541 175.671, 1384.794 173.947 C 1385.032 172.326, 1384.768 171, 1384.207 171 C 1383.646 171, 1383.423 170.100, 1383.710 169 C 1383.998 167.900, 1383.793 167, 1383.255 167 C 1382.717 167, 1382.505 165.808, 1382.784 164.351 C 1383.101 162.691, 1382.908 161.939, 1382.267 162.335 C 1381.692 162.690, 1380.982 161.659, 1380.647 159.984 C 1380.001 156.757, 1379.924 156.741, 1372.500 158.259 M 1255.250 158.706 C 1254.013 158.944, 1252.993 159.670, 1252.985 160.320 C 1252.974 161.142, 1252.722 161.110, 1252.152 160.212 C 1251.054 158.481, 1248.697 169.048, 1249.636 171.494 L 1250.340 173.328 1249.014 172.509 L 1247.688 171.689 1248.290 174.699 C 1248.621 176.354, 1248.481 178.119, 1247.980 178.620 C 1247.478 179.122, 1246.833 184.144, 1246.545 189.782 L 1246.022 200.031 1274.261 199.766 L 1302.500 199.500 1302.773 182.370 L 1303.046 165.239 1295.273 164.571 C 1290.998 164.204, 1283.729 163.225, 1279.119 162.395 C 1274.510 161.565, 1270.122 161.123, 1269.369 161.412 C 1268.616 161.701, 1268 161.493, 1268 160.950 C 1268 160.381, 1266.877 160.244, 1265.351 160.627 L 1262.702 161.292 1263.499 160.001 L 1264.297 158.710 1261.679 159.211 C 1260.239 159.486, 1259.298 159.326, 1259.589 158.856 C 1260.131 157.979, 1259.193 157.946, 1255.250 158.706 M 1270.652 226.678 C 1270.556 226.776, 1265.622 226.968, 1259.689 227.104 C 1253.755 227.241, 1248.756 227.610, 1248.579 227.926 C 1248.403 228.242, 1247.960 231.875, 1247.595 236 L 1246.932 243.500 1248.048 242 L 1249.164 240.500 1248.608 246 L 1248.051 251.500 1249.097 250 L 1250.143 248.500 1249.510 253.250 C 1249.125 256.145, 1249.264 258, 1249.868 258 C 1250.412 258, 1250.851 259.462, 1250.843 261.250 C 1250.817 266.839, 1251.447 269.320, 1253 269.743 L 1254.500 270.152 1253.031 269.132 L 1251.563 268.112 1255.031 268.230 C 1256.939 268.296, 1265.250 266.950, 1273.500 265.239 C 1281.750 263.528, 1291.505 261.826, 1295.177 261.456 L 1301.854 260.783 1301.257 259.227 C 1300.864 258.203, 1301.060 257.919, 1301.830 258.395 L 1303 259.118 1302.985 242.809 C 1302.974 231.910, 1302.648 226.998, 1302 228 C 1301.408 228.917, 1301.025 229.033, 1301.015 228.300 L 1301 227.100 1285.914 226.800 C 1277.616 226.635, 1270.748 226.580, 1270.652 226.678 M 1330.700 226.646 L 1331.900 227.133 1330.893 229.781 C 1329.730 232.842, 1329.898 260.181, 1331.076 259.453 C 1331.508 259.186, 1332.144 259.425, 1332.490 259.984 C 1332.835 260.543, 1335.904 261.011, 1339.309 261.024 C 1342.714 261.037, 1352.925 262.555, 1362 264.398 C 1371.075 266.241, 1378.651 267.352, 1378.835 266.868 C 1379.020 266.384, 1379.530 266.210, 1379.970 266.481 C 1380.960 267.093, 1383.276 258.256, 1382.468 256.949 C 1382.146 256.427, 1382.391 256, 1383.013 256 C 1383.634 256, 1384.044 254.988, 1383.923 253.750 C 1383.802 252.512, 1384.043 250.711, 1384.459 249.748 C 1384.875 248.784, 1384.934 246.872, 1384.589 245.498 C 1384.198 243.939, 1384.386 243, 1385.090 243 C 1385.791 243, 1386.064 241.674, 1385.810 239.500 C 1385.585 237.575, 1385.761 236, 1386.201 236 C 1386.640 236, 1387 234.200, 1387 232 C 1387 229.475, 1386.539 227.994, 1385.750 227.985 C 1384.917 227.974, 1385 227.646, 1386 227 C 1386.986 226.363, 1377.565 226.052, 1358.500 226.094 C 1342.550 226.129, 1330.040 226.377, 1330.700 226.646 M 1415.564 227.250 C 1415.359 227.938, 1414.644 233.795, 1413.975 240.266 C 1413.305 246.737, 1411.663 256.412, 1410.326 261.766 C 1407.622 272.592, 1406.698 277.118, 1407.569 275.279 L 1408.147 274.059 1409.469 275.279 C 1410.195 275.951, 1410.589 276.832, 1410.343 277.239 C 1410.097 277.645, 1410.668 277.681, 1411.612 277.319 L 1413.328 276.660 1412.525 277.960 C 1411.985 278.833, 1412.177 279.106, 1413.111 278.792 C 1413.875 278.535, 1415.096 279.039, 1415.824 279.912 C 1416.552 280.786, 1416.861 280.934, 1416.510 280.242 L 1415.873 278.985 1418.405 280.139 C 1419.798 280.773, 1420.703 281.671, 1420.417 282.135 C 1420.130 282.598, 1420.668 282.681, 1421.612 282.319 C 1422.730 281.889, 1423.090 282.045, 1422.645 282.766 L 1421.961 283.871 1424.905 283.027 C 1426.525 282.563, 1428.013 282.346, 1428.213 282.546 C 1428.412 282.746, 1429.154 281.982, 1429.862 280.850 L 1431.148 278.791 1429.824 279.482 C 1429.096 279.862, 1429.466 279.347, 1430.647 278.337 C 1432.993 276.329, 1437.513 268.009, 1436.270 267.985 C 1435.847 267.976, 1436.026 267.635, 1436.670 267.225 C 1438.238 266.228, 1442.179 256.099, 1441.455 254.927 C 1441.140 254.417, 1441.300 254, 1441.811 254 C 1442.322 254, 1443.251 252.088, 1443.875 249.750 C 1445.498 243.670, 1449 228.099, 1449 226.961 C 1449 226.385, 1442.379 226, 1432.469 226 L 1415.937 226 1415.564 227.250 M 1183.589 227.856 C 1183.298 228.326, 1184.284 228.567, 1185.780 228.391 C 1187.276 228.216, 1187.751 228.306, 1186.835 228.593 C 1183.941 229.499, 1185.104 243.607, 1188.174 244.835 C 1188.635 245.020, 1188.799 245.516, 1188.539 245.937 C 1187.939 246.907, 1191.055 258, 1191.927 258 C 1192.283 258, 1192.648 258.972, 1192.737 260.160 C 1192.827 261.348, 1193.260 262.586, 1193.700 262.910 C 1194.140 263.235, 1194.652 264.375, 1194.839 265.445 C 1195.393 268.627, 1204.933 287, 1206.031 287 C 1206.589 287, 1210.747 285.111, 1215.272 282.803 C 1219.797 280.495, 1223.809 278.685, 1224.186 278.782 C 1225.300 279.067, 1224.880 275.226, 1222.397 262.413 C 1221.109 255.765, 1219.517 245.865, 1218.860 240.413 C 1218.067 233.837, 1217.176 230.208, 1216.212 229.633 L 1214.760 228.766 1216.130 227.898 C 1216.936 227.388, 1210.634 227.024, 1200.809 227.015 C 1191.629 227.007, 1183.880 227.385, 1183.589 227.856 M 1278.070 290.888 L 1261.640 293.579 1261.244 295.039 L 1260.848 296.500 1261.869 295.029 C 1262.431 294.220, 1263.223 293.890, 1263.629 294.296 C 1264.035 294.701, 1263.860 295.540, 1263.241 296.159 L 1262.115 297.285 1265.191 303.378 C 1269.835 312.579, 1275.969 321.913, 1278.130 323.069 C 1279.189 323.636, 1279.828 324.469, 1279.550 324.919 C 1278.777 326.170, 1290.032 336.466, 1294.871 338.934 L 1299.152 341.118 1300.569 339.942 L 1301.986 338.766 1301.341 334.730 L 1300.695 330.694 1301.848 331.406 L 1303 332.118 1303 310.059 L 1303 288 1298.750 288.099 C 1296.412 288.153, 1287.107 289.408, 1278.070 290.888 M 1332 290.982 L 1330.500 291.933 1330.466 315.217 C 1330.430 340.328, 1330.487 341, 1332.666 341 C 1333.470 341, 1333.814 341.492, 1333.436 342.104 C 1332.494 343.627, 1338.195 340.010, 1339.793 338.070 C 1340.504 337.206, 1341.404 336.495, 1341.793 336.489 C 1342.182 336.483, 1345.650 333.355, 1349.500 329.539 C 1353.350 325.723, 1355.825 322.954, 1355 323.387 C 1354.175 323.820, 1354.625 323.195, 1356 322 C 1357.375 320.805, 1357.825 320.123, 1357 320.486 C 1356.175 320.848, 1356.850 319.938, 1358.500 318.463 C 1360.150 316.987, 1360.938 316.081, 1360.250 316.449 C 1358.128 317.584, 1358.864 316.034, 1361.750 313.289 C 1363.263 311.850, 1363.893 311.026, 1363.150 311.457 L 1361.800 312.241 1362.935 310.121 C 1363.560 308.954, 1364.531 308, 1365.094 308 C 1365.657 308, 1365.840 307.550, 1365.500 307 C 1365.160 306.450, 1365.359 306, 1365.941 306 C 1366.523 306, 1366.911 305.663, 1366.802 305.250 C 1366.393 303.704, 1368.180 299.993, 1369.069 300.543 C 1369.631 300.890, 1369.628 300.151, 1369.061 298.660 C 1368.548 297.310, 1368.368 295.965, 1368.663 295.671 C 1368.957 295.376, 1368.141 295.369, 1366.849 295.654 L 1364.500 296.173 1366 295.088 L 1367.500 294.003 1364 294.586 L 1360.500 295.168 1362 294.006 L 1363.500 292.843 1360.785 293.276 C 1359.292 293.514, 1357.942 293.373, 1357.785 292.963 C 1357.154 291.310, 1334.257 289.551, 1332 290.982 M 1510.559 325.333 L 1508.736 326.666 1508.080 333.833 C 1507.718 337.775, 1507.778 341, 1508.211 341 C 1508.645 341, 1508.968 342.012, 1508.930 343.250 L 1508.859 345.500 1508 343.500 L 1507.141 341.500 1507.070 343.250 L 1507 345 1500.565 345 C 1497.026 345, 1492.976 345.439, 1491.565 345.975 L 1489 346.950 1489 350.820 C 1489 353.466, 1489.656 355.284, 1491.073 356.566 L 1493.146 358.442 1504.323 358.471 C 1510.470 358.487, 1516.680 358.168, 1518.122 357.763 L 1520.745 357.026 1521.372 353.888 C 1521.718 352.162, 1522 345.664, 1522 339.448 L 1522 328.145 1519.365 326.073 C 1516.332 323.687, 1513.173 323.421, 1510.559 325.333 M 1115 430.906 C 1115 431.405, 1114.156 431.592, 1113.125 431.322 C 1108.849 430.204, 1097.125 439.278, 1098.435 442.692 C 1098.733 443.469, 1098.561 443.847, 1098.053 443.533 C 1096.160 442.363, 1095.912 453.201, 1096.226 523.500 C 1096.635 615.176, 1097.074 1111.276, 1096.746 1111.537 C 1096.611 1111.644, 1086.938 1112.043, 1075.250 1112.423 L 1054 1113.113 1054 1109.998 C 1054 1108.175, 1053.585 1107.138, 1053 1107.500 C 1052.450 1107.840, 1052 1107.679, 1052 1107.142 C 1052 1106.606, 1052.563 1105.940, 1053.250 1105.662 L 1054.500 1105.158 1053.250 1105.079 C 1052.436 1105.028, 1052.046 1103.517, 1052.132 1100.750 L 1052.263 1096.500 1053 1100 C 1053.405 1101.925, 1053.712 1037.125, 1053.682 956 C 1053.652 874.875, 1053.374 812.325, 1053.064 817 C 1052.754 821.675, 1052.589 774.200, 1052.697 711.500 C 1052.820 640.084, 1052.545 598.434, 1051.961 600 L 1051.028 602.500 1051.502 597.698 C 1051.797 594.714, 1051.606 593.125, 1050.999 593.500 C 1050.446 593.842, 1050.281 593.431, 1050.618 592.552 C 1050.946 591.698, 1050.716 591, 1050.107 591 C 1049.498 591, 1049.053 590.663, 1049.118 590.250 C 1049.453 588.133, 1048.718 586.936, 1045.819 584.871 C 1044.070 583.626, 1042.968 583.140, 1043.371 583.792 C 1043.857 584.578, 1043.583 584.777, 1042.558 584.384 C 1041.707 584.057, 1041.235 583.430, 1041.507 582.988 C 1041.780 582.547, 1041.032 582.440, 1039.845 582.751 L 1037.687 583.315 1038.500 582 L 1039.313 580.685 1037.156 581.249 C 1035.970 581.559, 1035 581.379, 1035 580.849 C 1035 580.319, 1032.638 579.860, 1029.750 579.830 C 1026.862 579.799, 1005.375 579.569, 982 579.319 C 938.336 578.853, 898.662 579.644, 899.479 580.965 C 899.732 581.375, 898.834 581.500, 897.482 581.241 C 895.833 580.926, 894.822 581.300, 894.408 582.380 C 894.068 583.265, 893.413 583.755, 892.952 583.471 C 891.793 582.754, 884.815 589.891, 885.535 591.057 C 885.856 591.576, 885.672 592, 885.126 592 C 882.685 592, 882.500 610.520, 882.500 854.500 L 882.500 1112.500 862.572 1112.772 C 849.382 1112.952, 842.281 1112.681, 841.572 1111.972 L 840.500 1110.901 840 928.200 L 839.500 745.500 837.642 741.764 C 835.504 737.461, 830.095 731.823, 828.847 732.595 C 828.381 732.883, 828 732.615, 828 732 C 828 731.385, 827.550 731.160, 827 731.500 C 826.450 731.840, 826 731.656, 826 731.090 C 826 730.525, 825.325 730.322, 824.500 730.638 C 823.675 730.955, 823 730.716, 823 730.107 L 823 729 754.941 729 C 708.074 729, 687.082 729.324, 687.525 730.040 C 687.942 730.715, 687.259 730.852, 685.584 730.432 C 683.911 730.012, 683 730.195, 683 730.951 C 683 731.593, 682.517 731.819, 681.926 731.454 C 680.573 730.618, 676.554 734.294, 673.130 739.500 L 670.500 743.500 670 928 L 669.500 1112.500 637.200 1112.764 C 619.434 1112.909, 605.138 1113.414, 605.429 1113.885 C 605.720 1114.357, 604.195 1114.696, 602.039 1114.640 L 598.120 1114.537 593.810 1117.570 C 591.439 1119.238, 589.496 1121.386, 589.491 1122.343 C 589.486 1123.301, 588.971 1124.402, 588.345 1124.792 C 585.395 1126.628, 584.360 1142, 587.187 1142 C 587.699 1142, 587.840 1142.450, 587.500 1143 C 587.160 1143.550, 587.434 1144, 588.108 1144 C 588.782 1144, 589.040 1144.293, 588.682 1144.651 C 588.324 1145.009, 588.812 1145.943, 589.766 1146.725 C 590.910 1147.664, 590.990 1147.923, 590 1147.485 C 589.175 1147.120, 590.220 1148.473, 592.322 1150.490 C 594.601 1152.678, 596.741 1153.929, 597.624 1153.591 C 598.438 1153.278, 598.849 1153.435, 598.538 1153.938 C 597.229 1156.057, 625.271 1156.163, 973.132 1155.351 L 1337.500 1154.500 1340.630 1152.787 C 1342.351 1151.844, 1344.698 1149.482, 1345.846 1147.537 C 1346.994 1145.591, 1348.424 1144, 1349.025 1144 C 1349.626 1144, 1349.865 1143.591, 1349.556 1143.090 C 1348.864 1141.971, 1349.963 1138.859, 1350.855 1139.410 C 1351.210 1139.630, 1351.500 1137.152, 1351.500 1133.905 C 1351.500 1130.657, 1351.177 1128, 1350.781 1128 C 1350.386 1128, 1350.300 1127.383, 1350.589 1126.629 C 1350.878 1125.875, 1350.414 1124.989, 1349.557 1124.660 C 1348.701 1124.332, 1348 1123.172, 1348 1122.082 C 1348 1120.255, 1342.409 1115, 1340.464 1115 C 1339.999 1115, 1340.491 1115.667, 1341.559 1116.483 L 1343.500 1117.967 1339.338 1116.238 C 1336.645 1115.120, 1335.586 1114.224, 1336.338 1113.700 C 1336.978 1113.254, 1335.368 1113.031, 1332.750 1113.203 C 1330.138 1113.374, 1328 1113.174, 1328 1112.757 C 1328 1112.341, 1314.500 1112, 1298 1112 C 1281.500 1112, 1267.891 1111.888, 1267.758 1111.750 C 1267.625 1111.612, 1267.284 962.100, 1266.999 779.500 L 1266.483 447.500 1265.175 443.679 C 1263.351 438.350, 1257.552 432.248, 1253.152 431.025 C 1248.481 429.728, 1115 429.613, 1115 430.906 M 1139.750 472.540 C 1138.733 473.616, 1138.819 1110.167, 1139.837 1111.771 L 1140.644 1113.041 1173.072 1113.412 C 1190.907 1113.616, 1201.225 1113.468, 1196 1113.083 L 1186.500 1112.383 1205.614 1112.191 L 1224.728 1112 1225.329 1107.620 C 1225.659 1105.211, 1226.131 1081.923, 1226.379 1055.870 C 1226.626 1029.816, 1226.523 1011.200, 1226.150 1014.500 C 1225.777 1017.800, 1225.220 897.542, 1224.912 747.259 C 1224.603 596.976, 1224.075 473.742, 1223.738 473.405 C 1222.809 472.475, 1140.612 471.629, 1139.750 472.540 M 925.681 623.389 C 925.021 625.108, 924.817 858.474, 925.472 863 C 925.671 864.375, 925.871 921.188, 925.917 989.250 L 926 1113 966.918 1113 C 989.423 1113, 1008.548 1112.727, 1009.418 1112.393 L 1011 1111.786 1011.219 1024.143 C 1011.339 975.939, 1011.691 945.725, 1012 957 L 1012.563 977.500 1012.592 940.500 C 1012.609 920.150, 1012.342 907.550, 1012 912.500 C 1011.658 917.450, 1011.293 854.337, 1011.189 772.250 L 1011 623 981.250 622.996 C 964.888 622.994, 945.836 622.703, 938.913 622.350 L 926.326 621.708 925.681 623.389 M 712.677 772.656 C 711.807 773.526, 711.785 1084.696, 712.654 1100.854 L 713.309 1113.021 755.404 1112.761 L 797.500 1112.500 797.500 942.500 L 797.500 772.500 755.427 772.239 C 732.287 772.096, 713.050 772.283, 712.677 772.656" stroke="none" fill="#dc6e3b" fill-rule="evenodd"/></svg>
